<?xml version="1.0" encoding="UTF-8" standalone="no"?>
<!-- Created with Inkscape (http://www.inkscape.org/) -->

<svg
   width="1280"
   height="256"
   viewBox="0 0 338.66666 67.733332"
   version="1.1"
   id="svg1345"
   inkscape:version="1.2 (dc2aedaf03, 2022-05-15)"
   sodipodi:docname="digits.svg"
   inkscape:export-filename="digits.png"
   inkscape:export-xdpi="96"
   inkscape:export-ydpi="96"
   xmlns:inkscape="http://www.inkscape.org/namespaces/inkscape"
   xmlns:sodipodi="http://sodipodi.sourceforge.net/DTD/sodipodi-0.dtd"
   xmlns="http://www.w3.org/2000/svg"
   xmlns:svg="http://www.w3.org/2000/svg">
  <sodipodi:namedview
     id="namedview1347"
     pagecolor="#888888"
     bordercolor="#000000"
     borderopacity="0.25"
     inkscape:showpageshadow="2"
     inkscape:pageopacity="0"
     inkscape:pagecheckerboard="0"
     inkscape:deskcolor="#d1d1d1"
     inkscape:document-units="px"
     showgrid="true"
     inkscape:zoom="1.6819304"
     inkscape:cx="438.78153"
     inkscape:cy="258.03683"
     inkscape:window-width="1920"
     inkscape:window-height="1129"
     inkscape:window-x="-8"
     inkscape:window-y="-8"
     inkscape:window-maximized="1"
     inkscape:current-layer="layer1">
    <inkscape:grid
       type="xygrid"
       id="grid1466"
       spacingx="2.1166666"
       spacingy="2.1166666"
       empspacing="4"
       empcolor="#d200e5"
       empopacity="0.30196078"
       originx="0"
       originy="0" />
  </sodipodi:namedview>
  <defs
     id="defs1342" />
  <g
     inkscape:label="Layer 1"
     inkscape:groupmode="layer"
     id="layer1">
    <path
       style="fill:#ffffff;stroke-width:0.264583"
       d="m 71.966664,48.683332 c 0,0 14.816667,-4.233333 14.816666,-19.050001 0,-10.583333 -14.816666,-10.583332 -14.816666,-10.583332 H 69.849998 V 6.3500012 l 2.116666,-1.4e-6 c 0,0 27.516665,-1e-6 27.516665,23.2833312 0,27.516667 -27.516665,31.75 -27.516665,31.75 H 69.849998 V 48.683332 Z"
       id="path473"
       sodipodi:nodetypes="csccccscccc" />
    <g
       id="g7390">
      <path
         id="path973"
         style="fill:#ffffff;fill-opacity:1;stroke-width:0.264583"
         d="m 16.933333,6.35 c 0,0 -14.816667,1.5e-5 -14.816667,14.816666 v 25.4 c 0,0 1.5e-5,14.816667 14.816667,14.816667 14.816651,0 14.816666,-14.816667 14.816666,-14.816667 v -25.4 c 0,0 -1.5e-5,-14.816666 -14.816666,-14.816666 z m 0,12.7 c 2.116665,0 2.116666,2.116666 2.116666,2.116666 v 25.4 c 0,0 -1e-6,2.116667 -2.116666,2.116667 -2.116665,0 -2.116667,-2.116667 -2.116667,-2.116667 v -25.4 c 0,0 2e-6,-2.116666 2.116667,-2.116666 z" />
      <path
         id="path1166"
         style="fill:#000000;fill-opacity:1;stroke-width:0.264583"
         d="m 16.933333,8.466667 c -12.6999864,0 -12.6999994,12.699999 -12.6999994,12.699999 v 25.399999 c 0,0 1.3e-5,12.7 12.6999994,12.7 12.699988,0 12.7,-12.7 12.7,-12.7 V 21.166666 c 0,0 -1.2e-5,-12.699999 -12.7,-12.699999 z m 0,8.466666 c 0,0 4.233333,4e-6 4.233333,4.233333 v 25.399999 c 0,0 -3e-6,4.233333 -4.233333,4.233333 C 12.700004,50.799998 12.7,46.566665 12.7,46.566665 V 21.166666 c 0,0 4e-6,-4.233333 4.233333,-4.233333 z" />
    </g>
    <g
       id="g7395">
      <path
         style="fill:#ffffff;stroke-width:0.264583"
         d="m 35.983332,21.166666 h 8.466667 l 0,27.516667 h -8.466666 v 12.7 h 29.633333 v -12.7 H 57.149999 V 6.3499999 h -12.7 l -8.466666,4.2333331 z"
         id="path2015"
         sodipodi:nodetypes="cccccccccccc" />
      <path
         style="fill:#000000;stroke-width:0.264583"
         d="M 38.1,59.266666 H 63.499999 V 50.799999 H 55.033333 V 8.4666666 H 46.566666 L 38.099999,12.7 v 6.349999 l 8.466666,0 10e-7,31.75 H 38.1 Z"
         id="path1650"
         sodipodi:nodetypes="cccccccccccc" />
    </g>
    <path
       style="fill:#ffffff;stroke-width:0.264583"
       d="m 69.849999,48.683333 v 12.7 h 29.633333 v -12.7 z"
       id="path1084" />
    <path
       style="fill:#000000;stroke-width:0.264583"
       d="m 71.966666,50.799999 v 8.466667 h 25.399999 v -8.466667 z"
       id="path467" />
    <path
       style="fill:#000000;stroke-width:0.264583"
       d="m 71.966666,50.799999 c 0,0 16.933331,-4.233334 16.933331,-21.166667 0,-12.699999 -16.933331,-12.699999 -16.933331,-12.699999 V 8.4666666 c 0,0 25.399998,-2e-7 25.399998,21.1666654 0,25.4 -25.399998,29.633334 -25.399998,29.633334 z"
       id="path471"
       sodipodi:nodetypes="csccscc" />
    <g
       id="g7421">
      <path
         style="fill:#ffffff;stroke-width:0.264583"
         d="m 107.95,27.516666 v 12.7 h 8.46666 c 0,0 16.93334,0 16.93334,-16.933333 0,-16.9333331 -16.93334,-16.9333331 -16.93334,-16.9333331 H 103.71667 V 19.049999 h 12.69999 c 0,0 4.23334,0 4.23334,4.233334 0,4.233333 -4.23334,4.233333 -4.23334,4.233333 z"
         id="path1208" />
      <path
         style="fill:#ffffff;stroke-width:0.264583"
         d="m 116.41666,61.383333 c 0,0 16.93334,0 16.93334,-16.933334 0,-16.933333 -16.93334,-16.933333 -16.93334,-16.933333 H 107.95 v 12.7 h 8.46666 c 0,0 4.23334,0 4.23334,4.233333 0,4.233334 -4.23334,4.233334 -4.23334,4.233334 h -12.69999 v 12.7 z"
         id="path1206" />
      <path
         style="fill:#000000;stroke-width:0.264583"
         d="m 105.83333,50.799999 h 10.58333 c 0,0 6.35,0 6.35,-6.35 0,-6.349999 -6.35,-6.349999 -6.35,-6.349999 h -6.34999 v -8.466667 h 6.34999 c 0,0 14.81667,0 14.81667,14.816666 0,14.816667 -14.81667,14.816667 -14.81667,14.816667 h -10.58333 z"
         id="path1094" />
      <path
         style="fill:#000000;stroke-width:0.264583"
         d="M 110.06667,29.633333 V 38.1 h 6.34999 c 0,0 14.81667,0 14.81667,-14.816667 0,-14.8166664 -14.81667,-14.8166664 -14.81667,-14.8166664 h -10.58333 v 8.4666664 h 10.58333 c 0,0 6.35,0 6.35,6.35 0,6.35 -6.35,6.35 -6.35,6.35 z"
         id="path1150" />
    </g>
    <g
       id="g7425">
      <path
         style="fill:#ffffff;stroke-width:0.264583"
         d="M 137.58333,6.3499998 V 40.216665 h 16.93333 v 21.166668 h 12.7 V 6.3499998 h -12.7 l 0,21.1666662 h -4.23333 l 0,-21.1666662 z"
         id="path3418"
         sodipodi:nodetypes="ccccccccccc" />
      <path
         style="fill:#000000;stroke-width:0.264583"
         d="m 156.63333,38.099999 0,21.166667 h 8.46666 V 8.4666665 h -8.46666 l 0,21.1666655 h -8.46667 l 0,-21.1666655 h -8.46667 L 139.7,38.099999 Z"
         id="path3416"
         sodipodi:nodetypes="ccccccccccc" />
    </g>
    <g
       id="g7429">
      <path
         style="fill:#ffffff;stroke-width:0.264583"
         d="M 201.08333,6.3499999 V 19.049999 H 184.15 v 8.466667 c 0,0 16.93333,0 16.93333,16.933333 0,16.933334 -19.05,16.933334 -19.05,16.933334 H 171.45 v -12.7 h 10.58333 c 0,0 6.35,0 6.35,-4.233334 0,-4.233333 -6.35,-4.233333 -6.35,-4.233333 H 171.45 V 6.3499999 Z"
         id="path3422" />
      <path
         style="fill:#000000;stroke-width:0.264583"
         d="m 198.96666,8.4666666 h -25.4 V 38.099999 h 8.46667 c 0,0 8.46666,0 8.46666,6.35 0,6.349999 -8.46666,6.349999 -8.46666,6.349999 l -8.46667,10e-7 v 8.466667 l 8.46667,-10e-7 c 0,0 16.93333,0 16.93333,-14.816666 0,-14.816667 -16.93333,-14.816667 -16.93333,-14.816667 V 16.933333 h 16.93333 z"
         id="path3420"
         sodipodi:nodetypes="ccccsccccscccc" />
    </g>
    <g
       id="g7433">
      <path
         id="path3498"
         style="fill:#ffffff;stroke-width:0.264583"
         d="m 220.13333,6.3499998 c -14.81663,0 -14.81666,14.8166662 -14.81666,14.8166662 v 23.283333 c 0,16.9333 14.81666,16.933333 14.81666,16.933333 0,0 14.81667,-3.3e-5 14.81667,-16.933333 0,-16.933299 -14.81667,-16.933333 -14.81667,-16.933333 0,0 -0.84167,0.003 -2.11666,0.22996 v -6.57996 c 0,-2.116663 2.11666,-2.116666 2.11666,-2.116666 H 234.95 V 6.3499998 Z m 0,33.8666662 c 2.11667,0 2.11667,4.233333 2.11667,4.233333 0,0 0,4.233333 -2.11667,4.233333 -2.11667,0 -2.11666,-4.233333 -2.11666,-4.233333 0,0 -1e-5,-4.233333 2.11666,-4.233333 z" />
      <path
         id="path3484"
         style="fill:#000000;stroke-width:0.264583"
         d="m 220.13333,8.4666664 c -12.69998,0 -12.7,12.6999996 -12.7,12.6999996 v 23.283333 c 0,0 2e-5,14.816666 12.7,14.816667 12.69998,-10e-7 12.7,-14.816667 12.7,-14.816667 0,0 -2e-5,-14.816666 -12.7,-14.816666 -1.60585,0 -3.00791,0.237757 -4.23333,0.65164 v -9.118307 c 0,-4.233325 4.23333,-4.233333 4.23333,-4.233333 h 12.7 V 8.4666664 Z m 0,29.6333326 c 4.23333,0 4.23334,6.35 4.23334,6.35 0,0 -1e-5,6.35 -4.23334,6.35 -4.23332,0 -4.23333,-6.35 -4.23333,-6.35 0,0 1e-5,-6.35 4.23333,-6.35 z" />
    </g>
    <g
       id="g7437">
      <path
         style="fill:#ffffff;stroke-width:0.264583"
         d="M 239.18333,6.3499997 V 19.049999 l 16.93333,0 -16.93333,42.333332 h 12.7 l 16.93333,-42.333332 10e-6,-12.6999993 z"
         id="path4280"
         sodipodi:nodetypes="cccccccc" />
      <path
         style="fill:#000000;stroke-width:0.264583"
         d="m 241.3,8.4666664 v 8.4666666 h 16.93333 L 241.3,59.266666 h 8.46666 L 266.7,16.933333 V 8.4666664 Z"
         id="path4278" />
    </g>
    <g
       id="g7443">
      <path
         id="path4359-1"
         style="fill:#ffffff;stroke-width:0.264583"
         d="m 287.86666,6.3499996 c -14.81664,0 -14.81667,16.9333324 -14.81667,16.9333324 0,0 3e-5,16.933333 14.81667,16.933333 14.81666,0 14.81667,-16.933333 14.81667,-16.933333 0,0 -1e-5,-16.9333324 -14.81667,-16.9333324 z m 0,12.6999994 c 2.11667,0 2.11667,4.233333 2.11667,4.233333 0,0 0,4.233333 -2.11667,4.233333 -2.11666,0 -2.11667,-4.233333 -2.11667,-4.233333 0,0 10e-6,-4.233333 2.11667,-4.233333 z" />
      <path
         id="path4359"
         style="fill:#ffffff;stroke-width:0.264583"
         d="m 287.86666,27.516666 c -14.81664,0 -14.81667,16.933333 -14.81667,16.933333 0,0 3e-5,16.933333 14.81667,16.933333 14.81666,0 14.81667,-16.933333 14.81667,-16.933333 0,0 -1e-5,-16.933333 -14.81667,-16.933333 z m 0,12.7 c 2.11667,0 2.11667,4.233333 2.11667,4.233333 0,0 0,4.233333 -2.11667,4.233333 -2.11666,0 -2.11667,-4.233333 -2.11667,-4.233333 0,0 10e-6,-4.233333 2.11667,-4.233333 z" />
      <path
         id="path4332"
         style="fill:#000000;stroke-width:0.264583"
         d="m 287.86666,29.633333 c -12.69999,0 -12.7,14.816666 -12.7,14.816666 0,0 1e-5,14.816666 12.7,14.816667 12.69999,0 12.7,-14.816667 12.7,-14.816667 0,0 -1e-5,-14.816666 -12.7,-14.816666 z m 0,8.466666 c 0,0 4.23333,7e-6 4.23333,6.35 0,6.349994 -4.23333,6.35 -4.23333,6.35 0,0 -4.23333,-6e-6 -4.23333,-6.35 0,-6.349993 4.23333,-6.35 4.23333,-6.35 z" />
      <path
         id="path4332-9"
         style="fill:#000000;stroke-width:0.264583"
         d="m 287.86666,8.4666666 c -12.69999,0 -12.7,14.8166654 -12.7,14.8166654 0,0 1e-5,14.816666 12.7,14.816667 12.69999,0 12.7,-14.816667 12.7,-14.816667 0,0 -1e-5,-14.8166654 -12.7,-14.8166654 z m 0,8.4666654 c 0,0 4.23333,7e-6 4.23333,6.35 0,6.349994 -4.23333,6.35 -4.23333,6.35 0,0 -4.23333,-6e-6 -4.23333,-6.35 0,-6.349993 4.23333,-6.35 4.23333,-6.35 z" />
    </g>
    <g
       id="g7449">
      <path
         style="fill:#ffffff;stroke-width:0.264583"
         d="m 323.85,38.1 v 8.466666 c 0,0 0,2.116667 -2.11667,2.116667 -2.11667,0 -8.46667,0 -8.46667,0 v 12.7 h 8.46667 c 0,0 14.81667,0 14.81667,-14.816667 0,-14.816666 0,-23.283333 0,-23.283333 z"
         id="path6627" />
      <path
         id="path4359-1-4"
         style="fill:#ffffff;stroke-width:0.264583"
         d="m 321.73332,6.3500006 c -14.81664,0 -14.81667,16.9333324 -14.81667,16.9333324 0,0 3e-5,16.933333 14.81667,16.933333 14.81666,0 14.81667,-16.933333 14.81667,-16.933333 0,0 -10e-6,-16.9333324 -14.81667,-16.9333324 z m 0,12.6999994 c 2.11667,0 2.11667,4.233333 2.11667,4.233333 0,0 0,4.233333 -2.11667,4.233333 -2.11666,0 -2.11667,-4.233333 -2.11667,-4.233333 0,0 1e-5,-4.233333 2.11667,-4.233333 z" />
      <path
         id="path4332-9-5"
         style="fill:#000000;stroke-width:0.264583"
         d="m 321.73332,8.4666676 c -12.69999,0 -12.7,14.8166654 -12.7,14.8166654 0,0 10e-6,14.816666 12.7,14.816667 12.69999,0 12.7,-14.816667 12.7,-14.816667 0,0 -10e-6,-14.8166654 -12.7,-14.8166654 z m 0,8.4666654 c 0,0 4.23333,7e-6 4.23333,6.35 0,6.349994 -4.23333,6.35 -4.23333,6.35 0,0 -4.23333,-6e-6 -4.23333,-6.35 0,-6.349993 4.23333,-6.35 4.23333,-6.35 z" />
      <path
         style="fill:#000000;stroke-width:0.264583"
         d="m 325.96666,23.283333 v 23.283333 c 0,0 0,4.233333 -4.23333,4.233333 l -6.35001,-10e-7 v 8.466667 l 6.35001,10e-7 c 0,0 12.7,0 12.7,-12.7 V 23.283333 Z"
         id="path5173"
         sodipodi:nodetypes="ccscccscc" />
    </g>
  </g>
</svg>
