<?xml version="1.0" encoding="UTF-8" standalone="no"?>
<!-- Created with Inkscape (http://www.inkscape.org/) -->

<svg
   width="768"
   height="256"
   viewBox="0 0 203.2 67.733333"
   version="1.1"
   id="svg8119"
   inkscape:version="1.2 (dc2aedaf03, 2022-05-15)"
   sodipodi:docname="level.svg"
   inkscape:export-filename="level.png"
   inkscape:export-xdpi="96"
   inkscape:export-ydpi="96"
   xmlns:inkscape="http://www.inkscape.org/namespaces/inkscape"
   xmlns:sodipodi="http://sodipodi.sourceforge.net/DTD/sodipodi-0.dtd"
   xmlns="http://www.w3.org/2000/svg"
   xmlns:svg="http://www.w3.org/2000/svg">
  <sodipodi:namedview
     id="namedview8121"
     pagecolor="#7c7c7c"
     bordercolor="#000000"
     borderopacity="0.25"
     inkscape:showpageshadow="2"
     inkscape:pageopacity="0"
     inkscape:pagecheckerboard="0"
     inkscape:deskcolor="#d1d1d1"
     inkscape:document-units="px"
     showgrid="true"
     inkscape:zoom="0.84096521"
     inkscape:cx="322.24876"
     inkscape:cy="258.03683"
     inkscape:window-width="1920"
     inkscape:window-height="1129"
     inkscape:window-x="-8"
     inkscape:window-y="-8"
     inkscape:window-maximized="1"
     inkscape:current-layer="layer1">
    <inkscape:grid
       type="xygrid"
       id="grid8240"
       spacingx="2.1166667"
       spacingy="2.1166667"
       empcolor="#c800e5"
       empopacity="0.30196078"
       empspacing="4" />
  </sodipodi:namedview>
  <defs
     id="defs8116" />
  <g
     inkscape:label="Layer 1"
     inkscape:groupmode="layer"
     id="layer1">
    <path
       style="fill:#ffffff;stroke-width:0.264583"
       d="M 2.1166668,6.3499999 V 46.566666 c 0,0 0,14.816667 14.8166672,14.816667 14.816666,0 14.816666,0 14.816666,0 v -12.7 H 16.933334 c 0,0 -2.116667,0 -2.116667,-2.116667 0,-2.116667 0,-40.2166661 0,-40.2166661 z"
       id="path8297" />
    <path
       style="fill:#000000;stroke-width:0.264583"
       d="M 4.2333337,8.4666668 V 46.566666 c 0,0 0,12.7 12.7000003,12.7 12.699999,0 12.699999,0 12.699999,0 V 50.799999 H 16.933334 c 0,0 -4.233334,0 -4.233334,-4.233333 0,-4.233333 0,-38.0999992 0,-38.0999992 z"
       id="path8242" />
    <path
       style="fill:#ffffff;stroke-width:0.264583"
       d="M 137.58334,6.3499998 V 46.566666 c 0,0 0,14.81667 14.81666,14.81667 14.81667,0 14.81667,0 14.81667,0 V 48.683333 H 152.4 c 0,0 -2.11666,0 -2.11666,-2.116667 0,-2.116667 0,-40.2166662 0,-40.2166662 z"
       id="path8297-3" />
    <path
       style="fill:#000000;stroke-width:0.264583"
       d="M 139.7,8.4666668 V 46.566666 c 0,0 0,12.7 12.7,12.7 12.7,0 12.7,0 12.7,0 v -8.466667 h -12.7 c 0,0 -4.23333,0 -4.23333,-4.233333 0,-4.233333 0,-38.0999992 0,-38.0999992 z"
       id="path8242-1" />
    <path
       style="fill:#ffffff;stroke-width:0.264583"
       d="M 35.983331,6.3499997 V 61.383331 H 65.616664 V 48.683334 H 48.683331 v -8.466667 h 12.7 v -12.7 h -12.7 V 19.05 H 65.616664 V 6.3499997 Z"
       id="path1306" />
    <path
       style="fill:#000000;fill-opacity:1;stroke-width:0.264583"
       d="M 38.100001,8.4666677 V 59.266667 H 63.499996 V 50.8 H 46.566667 V 38.100001 h 12.699999 v -8.466666 l -12.699999,-10e-7 v -12.7 H 63.499996 V 8.4666677 Z"
       id="path3958"
       sodipodi:nodetypes="ccccccccccccc" />
    <path
       style="fill:#ffffff;stroke-width:0.264583"
       d="M 103.71667,6.3499996 V 61.383331 H 133.35 V 48.683334 h -16.93333 v -8.466667 h 12.7 v -12.7 h -12.7 V 19.05 H 133.35 V 6.3499996 Z"
       id="path1306-0" />
    <path
       style="fill:#000000;fill-opacity:1;stroke-width:0.264583"
       d="M 105.83334,8.4666676 V 59.266667 h 25.39999 V 50.8 H 114.3 V 38.100001 H 127 v -8.466666 l -12.7,-10e-7 v -12.7 h 16.93333 V 8.4666676 Z"
       id="path3958-6"
       sodipodi:nodetypes="ccccccccccccc" />
    <path
       style="fill:#ffffff;stroke-width:0.264583"
       d="m 78.316668,61.383333 h 12.699999 l 8.466669,-50.8 V 6.3500001 H 86.783334 L 84.666667,29.633334 82.550001,6.3500001 h -12.7 v 4.2333329 z"
       id="path8330"
       sodipodi:nodetypes="cccccccccc" />
    <path
       style="fill:#000000;stroke-width:0.264583"
       d="m 71.966668,8.4666668 h -10e-7 l 8.466667,50.7999992 h 8.466667 L 97.366666,8.4666668 v 0 H 88.900001 L 84.666667,42.333334 80.433334,8.4666668 Z"
       id="path8328"
       sodipodi:nodetypes="cccccccccc" />
    <path
       style="fill:#ffffff;stroke-width:0.264583"
       d="m 177.8,16.933333 c 0,0 6.35,0 6.35,6.350001 0,6.349999 -6.35,6.349999 -6.35,6.349999 0,0 -6.35,0 -6.35,-6.349999 0,-6.350001 6.35,-6.350001 6.35,-6.350001 z"
       id="path8066" />
    <path
       style="fill:#000000;stroke-width:0.264583"
       d="m 173.56667,23.283334 c 0,0 0,-4.233334 4.23333,-4.233334 4.23334,0 4.23334,4.233334 4.23334,4.233334 0,0 0,4.233332 -4.23334,4.233332 -4.23333,0 -4.23333,-4.233332 -4.23333,-4.233332 z"
       id="path8064" />
    <path
       style="fill:#ffffff;stroke-width:0.264583"
       d="m 177.8,38.1 c 0,0 6.35,0 6.35,6.350001 C 184.15,50.8 177.8,50.8 177.8,50.8 c 0,0 -6.35,0 -6.35,-6.349999 C 171.45,38.1 177.8,38.1 177.8,38.1 Z"
       id="path8066-1" />
    <path
       style="fill:#000000;stroke-width:0.264583"
       d="m 173.56667,44.450001 c 0,0 0,-4.233334 4.23333,-4.233334 4.23334,0 4.23334,4.233334 4.23334,4.233334 0,0 0,4.233332 -4.23334,4.233332 -4.23333,0 -4.23333,-4.233332 -4.23333,-4.233332 z"
       id="path8064-3" />
  </g>
</svg>
