<?xml version="1.0" encoding="UTF-8" standalone="no"?>
<!-- Created with Inkscape (http://www.inkscape.org/) -->

<svg
   width="768"
   height="256"
   viewBox="0 0 203.2 67.733333"
   version="1.1"
   id="svg7544"
   inkscape:version="1.2 (dc2aedaf03, 2022-05-15)"
   sodipodi:docname="score.svg"
   inkscape:export-filename="score.png"
   inkscape:export-xdpi="96"
   inkscape:export-ydpi="96"
   xmlns:inkscape="http://www.inkscape.org/namespaces/inkscape"
   xmlns:sodipodi="http://sodipodi.sourceforge.net/DTD/sodipodi-0.dtd"
   xmlns="http://www.w3.org/2000/svg"
   xmlns:svg="http://www.w3.org/2000/svg">
  <sodipodi:namedview
     id="namedview7546"
     pagecolor="#959595"
     bordercolor="#000000"
     borderopacity="0.25"
     inkscape:showpageshadow="2"
     inkscape:pageopacity="0"
     inkscape:pagecheckerboard="0"
     inkscape:deskcolor="#d1d1d1"
     inkscape:document-units="px"
     showgrid="true"
     inkscape:zoom="1.4142136"
     inkscape:cx="377.59502"
     inkscape:cy="140.00714"
     inkscape:window-width="1920"
     inkscape:window-height="1129"
     inkscape:window-x="-8"
     inkscape:window-y="-8"
     inkscape:window-maximized="1"
     inkscape:current-layer="layer1">
    <inkscape:grid
       type="xygrid"
       id="grid7665"
       spacingx="2.1166667"
       spacingy="2.1166667"
       empcolor="#e500c8"
       empopacity="0.30196078"
       empspacing="4" />
  </sodipodi:namedview>
  <defs
     id="defs7541" />
  <g
     inkscape:label="Layer 1"
     inkscape:groupmode="layer"
     id="layer1">
    <path
       style="fill:#ffffff;stroke-width:0.264583"
       d="m 177.80001,16.933333 c 0,0 6.35,0 6.35,6.350001 0,6.349999 -6.35,6.349999 -6.35,6.349999 0,0 -6.35,0 -6.35,-6.349999 0,-6.350001 6.35,-6.350001 6.35,-6.350001 z"
       id="path8066" />
    <path
       id="path8014"
       style="fill:#ffffff;stroke-width:0.264583"
       d="M 103.71668,6.3500003 V 61.383333 h 12.7 V 40.216667 h 2.11667 c 0,0 14.81666,-3.6e-5 14.81666,-16.933334 0,-16.9332994 -14.81666,-16.9333327 -14.81666,-16.9333327 z m 12.7,12.6999997 h 2.11667 c 0,0 2.11666,4e-6 2.11666,4.233333 0,4.233328 -2.11666,4.233334 -2.11666,4.233334 h -2.11667 z" />
    <path
       style="fill:#ffffff;stroke-width:0.264583"
       d="m 118.53335,40.216666 c 0,0 2.11666,0 2.11666,2.116667 0,2.116666 0,19.05 0,19.05 h 12.7 v -19.05 c 0,0 0,-14.816667 -14.81666,-14.816667 -14.81667,0 -6.35,0 -6.35,0 v 12.7 z"
       id="path8012" />
    <path
       style="fill:#ffffff;stroke-width:0.264583"
       d="M 2.1166756,48.683333 H 16.933343 c 0,0 2.116667,0 2.116667,-4.233334 0,-4.233333 -2.116667,-4.233333 -2.116667,-4.233333 0,0 -14.8166674,0 -14.8166674,-16.933332 0,-16.9333338 14.8166674,-16.9333338 14.8166674,-16.9333338 H 31.750009 V 19.05 H 16.933343 c 0,0 -2.116667,0 -2.116667,4.233334 0,4.233332 2.116667,4.233332 2.116667,4.233332 0,0 14.816666,0 14.816666,16.933333 0,16.933334 -14.816666,16.933334 -14.816666,16.933334 H 2.1166756 Z"
       id="path7963" />
    <path
       style="fill:#ffffff;stroke-width:0.264583"
       d="M 4.2333425,59.266666 H 12.700009"
       id="path7959" />
    <path
       style="fill:#000000;stroke-width:0.264583"
       d="m 16.933343,59.266668 c 0,0 12.699999,-2e-6 12.699999,-14.816669 0,-14.816666 -12.699999,-14.816665 -12.699999,-14.816665 0,0 -4.233334,-1e-6 -4.233334,-6.35 0,-6.350001 4.233334,-6.350001 4.233334,-6.350001 H 29.633342 V 8.4666671 H 16.933343 c 0,0 -12.7000005,0 -12.7000005,14.8166669 C 4.2333425,38.1 16.933343,38.1 16.933343,38.1 c 0,0 4.233333,0 4.233333,6.349999 0,6.35 -4.233333,6.35 -4.233333,6.35 H 4.2333425 v 8.466667 z"
       id="path7961"
       sodipodi:nodetypes="cscsccccscscccc" />
    <path
       style="fill:#ffffff;stroke-width:0.264583"
       d="m 55.033344,6.3500014 c 0,0 -19.049999,0 -19.049999,27.5166656 0,27.516667 19.049999,27.516667 19.049999,27.516667 H 65.61668 v -12.7 H 55.033344 c 0,0 -6.349999,0 -6.349999,-14.816667 0,-14.816666 6.349999,-14.816666 6.349999,-14.816666 H 65.61668 V 6.3500014 Z"
       id="path7975" />
    <path
       style="fill:#000000;stroke-width:0.264583"
       d="m 55.033347,59.266667 c 0,0 -16.933336,0 -16.933336,-25.4 0,-25.3999991 16.933336,-25.3999991 16.933336,-25.3999991 h 8.466666 v 8.4666661 l -8.466667,1e-6 c 0,0 -8.466669,-1e-6 -8.466669,16.933332 C 46.566677,50.8 55.033347,50.8 55.033347,50.8 h 8.466666 v 8.466667 z"
       id="path7973"
       sodipodi:nodetypes="csccccscccc" />
    <path
       id="path973"
       style="fill:#ffffff;fill-opacity:1;stroke-width:0.264583"
       d="m 84.666677,6.350002 c 0,0 -14.816663,1.5e-5 -14.816663,14.816666 v 25.4 c 0,0 1.5e-5,14.816667 14.816663,14.816667 14.816649,0 14.816669,-14.816667 14.816669,-14.816667 v -25.4 c 0,0 -2e-5,-14.816666 -14.816669,-14.816666 z m 0,12.7 c 2.11667,0 2.11667,2.116666 2.11667,2.116666 v 25.4 c 0,0 0,2.116667 -2.11667,2.116667 -2.11666,0 -2.11666,-2.116667 -2.11666,-2.116667 v -25.4 c 0,0 0,-2.116666 2.11666,-2.116666 z" />
    <path
       id="path1166"
       style="fill:#000000;fill-opacity:1;stroke-width:0.264583"
       d="m 84.666677,8.466669 c -12.699987,0 -12.7,12.699999 -12.7,12.699999 v 25.399999 c 0,0 1.3e-5,12.7 12.7,12.7 12.699989,0 12.699999,-12.7 12.699999,-12.7 V 21.166668 c 0,0 -1e-5,-12.699999 -12.699999,-12.699999 z m 0,8.466666 c 0,0 4.23333,4e-6 4.23333,4.233333 v 25.399999 c 0,0 0,4.233333 -4.23333,4.233333 -4.23333,0 -4.23333,-4.233333 -4.23333,-4.233333 V 21.166668 c 0,0 0,-4.233333 4.23333,-4.233333 z" />
    <path
       id="path8006"
       style="fill:#000000;stroke-width:0.264583"
       d="M 105.83335,8.4666669 V 59.266667 h 8.46666 V 38.1 h 4.23334 c 0,0 4.23333,9e-6 4.23333,4.233333 v 16.933334 h 8.46667 V 42.333333 c 0,0 -0.001,-5.03671 -3.17345,-8.76639 1.82123,-2.194302 3.17345,-5.450154 3.17345,-10.28361 0,-14.257254 -12.7,-14.8166661 -12.7,-14.8166661 z m 8.46666,8.4666661 h 4.23334 c 0,0 4.23333,7e-6 4.23333,6.35 0,6.349994 -4.23333,6.35 -4.23333,6.35 h -4.23334 z" />
    <path
       style="fill:#ffffff;stroke-width:0.264583"
       d="M 137.58334,6.3500004 V 61.383331 h 29.63334 V 48.683334 h -16.93334 v -8.466667 h 12.7 v -12.7 h -12.7 V 19.05 h 16.93334 V 6.3500004 Z"
       id="path1306" />
    <path
       style="fill:#000000;fill-opacity:1;stroke-width:0.264583"
       d="m 139.70001,8.466668 v 50.799999 h 25.4 V 50.8 H 148.16668 V 38.100001 h 12.7 v -8.466666 l -12.7,-10e-7 v -12.7 h 16.93333 V 8.466668 Z"
       id="path3958"
       sodipodi:nodetypes="ccccccccccccc" />
    <path
       style="fill:#000000;stroke-width:0.264583"
       d="m 173.56668,23.283334 c 0,0 0,-4.233334 4.23333,-4.233334 4.23334,0 4.23334,4.233334 4.23334,4.233334 0,0 0,4.233332 -4.23334,4.233332 -4.23333,0 -4.23333,-4.233332 -4.23333,-4.233332 z"
       id="path8064" />
    <path
       style="fill:#ffffff;stroke-width:0.264583"
       d="m 177.80001,38.1 c 0,0 6.35,0 6.35,6.350001 0,6.349999 -6.35,6.349999 -6.35,6.349999 0,0 -6.35,0 -6.35,-6.349999 0,-6.350001 6.35,-6.350001 6.35,-6.350001 z"
       id="path8066-1" />
    <path
       style="fill:#000000;stroke-width:0.264583"
       d="m 173.56668,44.450001 c 0,0 0,-4.233334 4.23333,-4.233334 4.23334,0 4.23334,4.233334 4.23334,4.233334 0,0 0,4.233332 -4.23334,4.233332 -4.23333,0 -4.23333,-4.233332 -4.23333,-4.233332 z"
       id="path8064-3" />
  </g>
</svg>
