<?xml version="1.0" encoding="UTF-8" standalone="no"?>
<!-- Created with Inkscape (http://www.inkscape.org/) -->

<svg
   width="768"
   height="2048"
   viewBox="0 0 203.2 541.86665"
   version="1.1"
   id="svg8619"
   inkscape:version="1.2 (dc2aedaf03, 2022-05-15)"
   sodipodi:docname="tspin.svg"
   inkscape:export-filename="lineClearMessages.png"
   inkscape:export-xdpi="96"
   inkscape:export-ydpi="96"
   xmlns:inkscape="http://www.inkscape.org/namespaces/inkscape"
   xmlns:sodipodi="http://sodipodi.sourceforge.net/DTD/sodipodi-0.dtd"
   xmlns="http://www.w3.org/2000/svg"
   xmlns:svg="http://www.w3.org/2000/svg">
  <sodipodi:namedview
     id="namedview8621"
     pagecolor="#7e7e7e"
     bordercolor="#000000"
     borderopacity="0.25"
     inkscape:showpageshadow="2"
     inkscape:pageopacity="0"
     inkscape:pagecheckerboard="0"
     inkscape:deskcolor="#d1d1d1"
     inkscape:document-units="px"
     showgrid="true"
     inkscape:zoom="0.2973261"
     inkscape:cx="773.56142"
     inkscape:cy="1257.8781"
     inkscape:window-width="1920"
     inkscape:window-height="1129"
     inkscape:window-x="-8"
     inkscape:window-y="-8"
     inkscape:window-maximized="1"
     inkscape:current-layer="layer1">
    <inkscape:grid
       type="xygrid"
       id="grid8740"
       spacingx="2.1166667"
       spacingy="2.1166667"
       empspacing="4"
       empcolor="#d200e5"
       empopacity="0.30196078"
       originx="0"
       originy="0" />
  </sodipodi:namedview>
  <defs
     id="defs8616" />
  <g
     inkscape:label="Layer 1"
     inkscape:groupmode="layer"
     id="layer1">
    <path
       id="path1489-7"
       style="fill:#ffffff;stroke-width:0.264583"
       d="m 103.71667,141.81666 v 33.86667 h 12.7 c 0,0 16.93333,-2e-5 16.93333,-16.93333 0,-16.93333 -16.93333,-16.93334 -16.93333,-16.93334 z m 12.7,12.7 c 0,0 4.23333,0 4.23333,4.23334 0,4.23332 -4.23333,4.23333 -4.23333,4.23333 z" />
    <path
       id="path1489"
       style="fill:#ffffff;stroke-width:0.264583"
       d="m 103.71667,162.98332 v 33.86667 h 12.7 c 0,0 16.93333,-2e-5 16.93333,-16.93333 0,-16.93333 -16.93333,-16.93334 -16.93333,-16.93334 z m 12.7,12.7 c 0,0 4.23333,0 4.23333,4.23334 0,4.23332 -4.23333,4.23333 -4.23333,4.23333 z" />
    <path
       style="fill:#ffffff;stroke-width:0.264583"
       d="m 69.850002,141.81667 h 12.7 v 40.21667 c 0,0 0,2.11666 2.116667,2.11666 2.116666,0 2.116666,-2.11666 2.116666,-2.11666 v -40.21667 h 12.700002 v 40.21667 c 0,0 0,14.81666 -14.816668,14.81666 -14.816667,0 -14.816667,-14.81666 -14.816667,-14.81666 z"
       id="path1380" />
    <path
       style="fill:#ffffff;stroke-width:0.264583"
       d="M 137.58334,6.3500015 V 19.050002 H 146.05 v 29.633333 h -8.46666 v 12.7 h 29.63333 v -12.7 H 158.75 V 19.050002 h 8.46667 V 6.3500015 Z"
       id="path8879" />
    <path
       id="path8857"
       style="fill:#ffffff;stroke-width:0.264583"
       d="m 103.71667,6.35 v 55.033333 h 12.7 V 40.216667 h 2.11666 c 0,0 14.81667,-1.9e-5 14.81667,-16.933334 C 133.35,6.3500161 118.53333,6.35 118.53333,6.35 Z m 12.7,12.7 h 2.11666 c 0,0 2.11667,4e-6 2.11667,4.233333 0,4.233328 -2.11667,4.233334 -2.11667,4.233334 h -2.11666 z" />
    <path
       style="fill:#ffffff;stroke-width:0.264583"
       d="M 35.983335,27.516668 V 40.216667 H 65.616668 V 27.516668 Z"
       id="path8773" />
    <path
       style="fill:#ffffff;stroke-width:0.264583"
       d="M 2.1166669,6.3500004 V 19.05 h 8.4666701 v 42.333331 h 12.7 V 19.05 h 8.46666 V 6.3500004 Z"
       id="path1312" />
    <path
       style="fill:#000000;fill-opacity:1;stroke-width:0.264583"
       d="m 4.2333369,8.466668 v 8.466666 h 8.4666601 v 42.333333 h 8.46667 V 16.933334 h 8.46667 V 8.466668 Z"
       id="path3962" />
    <path
       style="fill:#ffffff;stroke-width:0.264583"
       d="m 2.1166635,209.55001 v 12.7 h 8.4666705 v 42.33333 h 12.7 v -42.33333 h 8.46666 v -12.7 z"
       id="path1312-7" />
    <path
       style="fill:#000000;fill-opacity:1;stroke-width:0.264583"
       d="m 4.2333335,211.66667 v 8.46667 h 8.4666605 v 42.33333 h 8.46667 v -42.33333 h 8.46667 v -8.46667 z"
       id="path3962-5" />
    <path
       style="fill:#ffffff;stroke-width:0.264583"
       d="m 2.1166659,277.28334 v 12.7 h 8.4666711 v 42.33333 h 12.7 v -42.33333 h 8.46666 v -12.7 z"
       id="path1312-7-4" />
    <path
       style="fill:#000000;fill-opacity:1;stroke-width:0.264583"
       d="m 4.2333359,279.4 v 8.46667 H 12.699997 V 330.2 h 8.46667 v -42.33333 h 8.46667 V 279.4 Z"
       id="path3962-5-5" />
    <path
       style="fill:#000000;stroke-width:0.264583"
       d="m 38.100001,29.633334 v 8.466667"
       id="path8769" />
    <path
       style="fill:#000000;stroke-width:0.264583"
       d="m 63.500001,38.100001 v -8.466667 h -25.4 v 8.466667 z"
       id="path8771" />
    <path
       style="fill:#ffffff;stroke-width:0.264583"
       d="m 69.850001,48.683333 h 14.816667 c 0,0 2.116667,0 2.116667,-4.233334 0,-4.233333 -2.116667,-4.233333 -2.116667,-4.233333 0,0 -14.816667,0 -14.816667,-16.933332 0,-16.9333335 14.816667,-16.9333335 14.816667,-16.9333335 H 99.483334 V 19.05 H 84.666668 c 0,0 -2.116667,0 -2.116667,4.233334 0,4.233332 2.116667,4.233332 2.116667,4.233332 0,0 14.816666,0 14.816666,16.933333 0,16.933334 -14.816666,16.933334 -14.816666,16.933334 H 69.850001 Z"
       id="path7963" />
    <path
       style="fill:#ffffff;stroke-width:0.264583"
       d="m 71.966668,59.266666 h 8.466666"
       id="path7959" />
    <path
       style="fill:#000000;stroke-width:0.264583"
       d="m 84.666668,59.266668 c 0,0 12.699999,-2e-6 12.699999,-14.816669 0,-14.816666 -12.699999,-14.816665 -12.699999,-14.816665 0,0 -4.233334,-1e-6 -4.233334,-6.35 0,-6.350001 4.233334,-6.350001 4.233334,-6.350001 H 97.366667 V 8.4666674 H 84.666668 c 0,0 -12.7,0 -12.7,14.8166666 0,14.816666 12.7,14.816666 12.7,14.816666 0,0 4.233333,0 4.233333,6.349999 0,6.35 -4.233333,6.35 -4.233333,6.35 h -12.7 v 8.466667 z"
       id="path7961"
       sodipodi:nodetypes="cscsccccscscccc" />
    <path
       id="path8852"
       style="fill:#000000;stroke-width:0.264583"
       d="M 105.83334,8.4666674 V 59.266668 H 114.3 V 38.100001 h 4.23334 c 0,0 12.7,-1.6e-5 12.7,-14.816667 0,-14.8166523 -12.7,-14.8166666 -12.7,-14.8166666 z M 114.3,16.933334 h 4.23334 c 0,0 4.23333,6e-6 4.23333,6.35 0,6.349993 -4.23333,6.35 -4.23333,6.35 H 114.3 Z" />
    <path
       id="path8857-7"
       style="fill:#ffffff;stroke-width:0.264583"
       d="m 103.71667,209.55 v 55.03334 h 12.7 v -21.16667 h 2.11666 c 0,0 14.81667,-2e-5 14.81667,-16.93333 0,-16.93332 -14.81667,-16.93334 -14.81667,-16.93334 z m 12.7,12.7 h 2.11666 c 0,0 2.11667,1e-5 2.11667,4.23334 0,4.23332 -2.11667,4.23333 -2.11667,4.23333 h -2.11666 z" />
    <path
       id="path8852-5"
       style="fill:#000000;stroke-width:0.264583"
       d="m 105.83335,211.66667 v 50.8 H 114.3 V 241.3 h 4.23334 c 0,0 12.7,-1e-5 12.7,-14.81666 0,-14.81666 -12.7,-14.81667 -12.7,-14.81667 z m 8.46665,8.46667 h 4.23334 c 0,0 4.23333,0 4.23333,6.35 0,6.34999 -4.23333,6.35 -4.23333,6.35 H 114.3 Z" />
    <path
       style="fill:#000000;stroke-width:0.264583"
       d="m 139.7,8.4666684 v 8.4666666 h 8.46667 V 50.800001 H 139.7 v 8.466667 h 25.4 v -8.466667 h -8.46666 V 16.933335 H 165.1 V 8.4666684 Z"
       id="path8877" />
    <path
       style="fill:#ffffff;stroke-width:0.264583"
       d="M 171.45,6.3500001 V 61.38333 h 12.7 V 46.566665 l 4.23334,14.816665 h 12.69999 V 6.3500001 h -12.69999 l -1e-5,14.8166659 L 184.15,6.3500001 Z"
       id="path1198"
       sodipodi:nodetypes="ccccccccccc" />
    <path
       style="fill:#000000;fill-opacity:1;stroke-width:0.264583"
       d="M 173.56667,8.4666668 V 59.266665 h 8.46667 V 33.866666 L 190.5,59.266665 h 8.46667 V 8.4666668 H 190.5 V 33.866666 L 182.03334,8.4666668 Z"
       id="path3907"
       sodipodi:nodetypes="ccccccccccc" />
    <path
       style="fill:#ffffff;stroke-width:0.264583"
       d="m 35.983338,74.083337 v 12.7 h 8.46666 v 29.633333 h -8.46666 v 12.7 h 29.63333 v -12.7 h -8.46667 V 86.783337 h 8.46667 v -12.7 z"
       id="path8879-8" />
    <path
       style="fill:#000000;stroke-width:0.264583"
       d="m 38.099998,76.200003 v 8.466667 h 8.46667 v 33.86667 h -8.46667 V 127 h 25.4 v -8.46666 h -8.46666 V 84.66667 h 8.46666 v -8.466667 z"
       id="path8877-5" />
    <path
       style="fill:#ffffff;stroke-width:0.264583"
       d="M 69.850003,209.55001 V 222.25 h 8.46666 v 29.63334 h -8.46666 v 12.7 h 29.63333 v -12.7 h -8.46667 V 222.25 h 8.46667 v -12.69999 z"
       id="path8879-8-2" />
    <path
       style="fill:#000000;stroke-width:0.264583"
       d="m 71.966663,211.66667 v 8.46667 h 8.46667 v 33.86667 h -8.46667 v 8.46666 h 25.4 v -8.46666 h -8.46666 v -33.86667 h 8.46666 v -8.46667 z"
       id="path8877-5-9" />
    <path
       style="fill:#ffffff;stroke-width:0.264583"
       d="m 69.849998,74.083335 v 55.033325 h 12.7 V 114.3 l 4.23334,14.81666 h 12.69999 V 74.083335 h -12.69999 l -1e-5,14.816666 -4.23333,-14.816666 z"
       id="path1198-3"
       sodipodi:nodetypes="ccccccccccc" />
    <path
       style="fill:#000000;fill-opacity:1;stroke-width:0.264583"
       d="M 71.966668,76.200002 V 127 h 8.46667 v -25.4 l 8.46666,25.4 h 8.46667 V 76.200002 h -8.46667 V 101.6 l -8.46666,-25.399998 z"
       id="path3907-0"
       sodipodi:nodetypes="ccccccccccc" />
    <path
       style="fill:#ffffff;stroke-width:0.264583"
       d="M 2.1166657,116.41667 H 16.933334 c 0,0 2.116667,0 2.116667,-4.23333 0,-4.23334 -2.116667,-4.23334 -2.116667,-4.23334 0,0 -14.8166683,0 -14.8166683,-16.933331 0,-16.933334 14.8166683,-16.933334 14.8166683,-16.933334 H 31.75 v 12.7 H 16.933334 c 0,0 -2.116667,0 -2.116667,4.233334 0,4.233332 2.116667,4.233332 2.116667,4.233332 0,0 14.816666,0 14.816666,16.933339 0,16.93333 -14.816666,16.93333 -14.816666,16.93333 H 2.1166657 Z"
       id="path7963-1" />
    <path
       style="fill:#ffffff;stroke-width:0.264583"
       d="M 8.4666759,110.06667 H 16.933342"
       id="path7959-2" />
    <path
       style="fill:#000000;stroke-width:0.264583"
       d="m 16.933334,127.00001 c 0,0 12.699999,0 12.699999,-14.81667 0,-14.816672 -12.699999,-14.816671 -12.699999,-14.816671 0,0 -4.233334,-10e-7 -4.233334,-6.35 0,-6.350001 4.233334,-6.350001 4.233334,-6.350001 H 29.633333 V 76.200002 H 16.933334 c 0,0 -12.7000014,0 -12.7000014,14.816667 0,14.816661 12.7000014,14.816661 12.7000014,14.816661 0,0 4.233333,0 4.233333,6.35001 0,6.35 -4.233333,6.35 -4.233333,6.35 H 4.2333326 v 8.46667 z"
       id="path7961-3"
       sodipodi:nodetypes="cscsccccscscccc" />
    <path
       style="fill:#ffffff;stroke-width:0.264583"
       d="m 171.45,319.61668 h 14.81667 c 0,0 2.11667,0 2.11667,-4.23333 0,-4.23334 -2.11667,-4.23334 -2.11667,-4.23334 0,0 -14.81667,0 -14.81667,-16.93333 0,-16.93333 14.81667,-16.93333 14.81667,-16.93333 h 14.81667 v 12.7 h -14.81667 c 0,0 -2.11666,0 -2.11666,4.23333 0,4.23334 2.11666,4.23334 2.11666,4.23334 0,0 14.81667,0 14.81667,16.93333 0,16.93333 -14.81667,16.93333 -14.81667,16.93333 H 171.45 Z"
       id="path7963-1-4" />
    <path
       style="fill:#ffffff;stroke-width:0.264583"
       d="m 177.80001,313.26668 h 8.46667"
       id="path7959-2-2" />
    <path
       style="fill:#000000;stroke-width:0.264583"
       d="m 186.26667,330.20002 c 0,0 12.7,0 12.7,-14.81667 0,-14.81667 -12.7,-14.81667 -12.7,-14.81667 0,0 -4.23333,0 -4.23333,-6.35 0,-6.35 4.23333,-6.35 4.23333,-6.35 h 12.7 v -8.46666 h -12.7 c 0,0 -12.7,0 -12.7,14.81666 0,14.81666 12.7,14.81666 12.7,14.81666 0,0 4.23334,0 4.23334,6.35001 0,6.35 -4.23334,6.35 -4.23334,6.35 h -12.7 v 8.46667 z"
       id="path7961-3-9"
       sodipodi:nodetypes="cscsccccscscccc" />
    <path
       style="fill:#ffffff;stroke-width:0.264583"
       d="m 120.65001,88.900004 c 0,0 0,-2.116667 -2.11666,-2.116667 -2.11667,0 -2.11667,2.116667 -2.11667,2.116667 V 114.3 c 0,0 0,2.11667 2.11667,2.11667 2.11666,0 2.11666,-2.11667 2.11666,-2.11667 v -6.35 h -4.23333 V 97.36667 h 16.93334 l -1e-5,16.93333 c 0,0 0,14.81667 -14.81666,14.81667 -14.81667,0 -14.81667,-14.81667 -14.81667,-14.81667 V 88.900004 c 0,0 0,-14.816667 14.81667,-14.816667 14.81666,0 14.81666,14.816667 14.81666,14.816667 v 2.116666 h -12.7 z"
       id="path848"
       sodipodi:nodetypes="csccsccccccsccscccc" />
    <path
       style="fill:#000000;stroke-width:0.264583"
       d="m 118.53334,105.83333 1e-5,-6.349993 h 12.7 l -1e-5,14.816663 c 0,0 0,12.7 -12.7,12.7 -12.7,0 -12.7,-12.7 -12.7,-12.7 V 88.900011 c 0,0 0,-12.7 12.7,-12.7 12.7,0 12.7,12.7 12.7,12.7 h -8.46667 c 0,0 0,-4.233334 -4.23333,-4.233334 -4.23333,0 -4.23333,4.233334 -4.23333,4.233334 V 114.3 c 0,0 0,4.23333 4.23333,4.23333 4.23333,0 4.23334,-4.23333 4.23334,-4.23333 v -8.46667"
       id="path846"
       sodipodi:nodetypes="ccccsccsccsccscc" />
    <path
       style="fill:#ffffff;stroke-width:0.264583"
       d="M 137.58334,74.083335 V 114.3 c 0,0 0,14.81667 14.81666,14.81667 14.81667,0 14.81667,0 14.81667,0 v -12.7 H 152.4 c 0,0 -2.11666,0 -2.11666,-2.11667 0,-2.11667 0,-40.216665 0,-40.216665 z"
       id="path8297" />
    <path
       style="fill:#000000;stroke-width:0.264583"
       d="M 139.7,76.200002 V 114.3 c 0,0 0,12.7 12.7,12.7 12.7,0 12.7,0 12.7,0 v -8.46667 h -12.7 c 0,0 -4.23333,0 -4.23333,-4.23333 0,-4.23333 0,-38.099998 0,-38.099998 z"
       id="path8242" />
    <path
       style="fill:#ffffff;stroke-width:0.264583"
       d="m 171.45,74.08333 v 55.03333 h 29.63334 v -12.7 H 184.15 V 107.95 h 12.7 V 95.249993 h -12.7 v -8.46666 h 16.93334 V 74.08333 Z"
       id="path1306" />
    <path
       style="fill:#000000;fill-opacity:1;stroke-width:0.264583"
       d="M 173.56667,76.199998 V 127 h 25.4 v -8.46667 h -16.93333 v -12.7 h 12.7 v -8.466667 h -12.7 v -12.7 h 16.93333 v -8.466665 z"
       id="path3958"
       sodipodi:nodetypes="ccccccccccccc" />
    <path
       style="fill:#ffffff;stroke-width:0.264583"
       d="m 137.58334,141.81668 v 40.21666 c 0,0 0,14.81667 14.81666,14.81667 14.81667,0 14.81667,0 14.81667,0 v -12.7 H 152.4 c 0,0 -2.11666,0 -2.11666,-2.11667 0,-2.11667 0,-40.21666 0,-40.21666 z"
       id="path8297-4" />
    <path
       style="fill:#000000;stroke-width:0.264583"
       d="m 139.7,143.93334 v 38.1 c 0,0 0,12.7 12.7,12.7 12.7,0 12.7,0 12.7,0 v -8.46667 h -12.7 c 0,0 -4.23333,0 -4.23333,-4.23333 0,-4.23333 0,-38.1 0,-38.1 z"
       id="path8242-4" />
    <path
       style="fill:#ffffff;stroke-width:0.264583"
       d="m 137.58334,211.66668 v 40.21666 c 0,0 0,14.81667 14.81666,14.81667 14.81667,0 14.81667,0 14.81667,0 v -12.7 H 152.4 c 0,0 -2.11666,0 -2.11666,-2.11667 0,-2.11667 0,-40.21666 0,-40.21666 z"
       id="path8297-4-6" />
    <path
       style="fill:#000000;stroke-width:0.264583"
       d="m 139.7,213.78334 v 38.1 c 0,0 0,12.7 12.7,12.7 12.7,0 12.7,0 12.7,0 v -8.46667 h -12.7 c 0,0 -4.23333,0 -4.23333,-4.23333 0,-4.23333 0,-38.1 0,-38.1 z"
       id="path8242-4-1" />
    <path
       style="fill:#ffffff;stroke-width:0.264583"
       d="M 171.45,141.81667 V 196.85 h 29.63334 v -12.7 H 184.15 v -8.46666 h 12.7 v -12.70001 h -12.7 v -8.46666 h 16.93334 v -12.7 z"
       id="path1306-2" />
    <path
       style="fill:#000000;fill-opacity:1;stroke-width:0.264583"
       d="m 173.56667,143.93334 v 50.8 h 25.4 v -8.46667 h -16.93333 v -12.7 h 12.7 V 165.1 h -12.7 v -12.7 h 16.93333 v -8.46666 z"
       id="path3958-5"
       sodipodi:nodetypes="ccccccccccccc" />
    <path
       style="fill:#ffffff;stroke-width:0.264583"
       d="m 171.45,211.66668 v 55.03333 h 29.63334 v -12.7 H 184.15 v -8.46666 h 12.7 v -12.70001 h -12.7 v -8.46666 h 16.93334 v -12.7 z"
       id="path1306-2-1" />
    <path
       style="fill:#000000;fill-opacity:1;stroke-width:0.264583"
       d="m 173.56667,213.78335 v 50.8 h 25.4 v -8.46667 h -16.93333 v -12.7 h 12.7 v -8.46667 h -12.7 v -12.7 h 16.93333 v -8.46666 z"
       id="path3958-5-0"
       sodipodi:nodetypes="ccccccccccccc" />
    <path
       style="fill:#ffffff;stroke-width:0.264583"
       d="m 35.983327,277.28334 v 55.03333 h 29.63334 v -12.7 h -16.93334 v -8.46666 h 12.7 V 298.45 h -12.7 v -8.46666 h 16.93334 v -12.7 z"
       id="path1306-2-1-8" />
    <path
       style="fill:#000000;fill-opacity:1;stroke-width:0.264583"
       d="m 38.099997,279.40001 v 50.8 h 25.4 v -8.46667 h -16.93333 v -12.7 h 12.7 v -8.46667 h -12.7 v -12.7 h 16.93333 v -8.46666 z"
       id="path3958-5-0-2"
       sodipodi:nodetypes="ccccccccccccc" />
    <path
       id="path1045"
       style="fill:#ffffff;fill-opacity:1;stroke-width:0.264583"
       d="M 2.1166632,141.81667 V 196.85 H 16.933334 c 0,0 14.816668,-2e-5 14.816668,-14.81666 v -25.4 c 0,0 -3e-5,-14.81667 -14.816668,-14.81667 z m 12.7000008,12.7 h 2.11667 c 0,0 2.11667,0 2.11667,2.11667 v 25.4 c 0,0 -10e-6,2.11666 -2.11667,2.11666 h -2.11667 z" />
    <path
       id="path1715"
       style="fill:#000000;fill-opacity:1;stroke-width:0.264583"
       d="m 4.2333332,143.93334 v 50.79999 H 16.933334 c 0,0 12.699998,-1e-5 12.699998,-12.7 v -25.39999 c 0,0 -10e-6,-12.7 -12.699998,-12.7 z M 12.700004,152.4 h 4.23333 c 0,0 4.23334,1e-5 4.23334,4.23334 v 25.39999 c 0,0 0,4.23334 -4.23334,4.23334 h -4.23333 z" />
    <path
       id="path973"
       style="fill:#ffffff;fill-opacity:1;stroke-width:0.264583"
       d="m 50.799997,141.81667 c 0,0 -14.816663,2e-5 -14.816663,14.81667 v 25.4 c 0,0 1.5e-5,14.81667 14.816663,14.81667 14.816649,0 14.816669,-14.81667 14.816669,-14.81667 v -25.4 c 0,0 -2e-5,-14.81667 -14.816669,-14.81667 z m 0,12.7 c 2.11667,0 2.11667,2.11667 2.11667,2.11667 v 25.4 c 0,0 0,2.11666 -2.11667,2.11666 -2.11666,0 -2.11666,-2.11666 -2.11666,-2.11666 v -25.4 c 0,0 0,-2.11667 2.11666,-2.11667 z" />
    <path
       id="path1166"
       style="fill:#000000;fill-opacity:1;stroke-width:0.264583"
       d="m 50.799997,143.93334 c -12.699987,0 -12.7,12.7 -12.7,12.7 v 25.4 c 0,0 1.3e-5,12.7 12.7,12.7 12.699989,0 12.699999,-12.7 12.699999,-12.7 v -25.4 c 0,0 -1e-5,-12.7 -12.699999,-12.7 z m 0,8.46666 c 0,0 4.23333,1e-5 4.23333,4.23334 v 25.4 c 0,0 0,4.23333 -4.23333,4.23333 -4.23333,0 -4.23333,-4.23333 -4.23333,-4.23333 v -25.4 c 0,0 0,-4.23334 4.23333,-4.23334 z" />
    <path
       style="fill:#000000;stroke-width:0.264583"
       d="m 71.966669,143.93333 v 38.10001 c 0,0 0,12.7 12.7,12.7 12.699998,0 12.699998,-12.7 12.699998,-12.7 v -38.10001 h -8.466665 v 38.10001 c 0,0 0,4.23333 -4.233333,4.23333 -4.233334,0 -4.233334,-4.23333 -4.233334,-4.23333 v -38.10001 z"
       id="path1378" />
    <path
       id="path1462"
       style="fill:#000000;stroke-width:0.264583"
       d="m 105.83334,165.09999 v 29.63333 h 10.58333 c 0,0 14.81667,-1e-5 14.81667,-14.81666 0,-14.81666 -14.81667,-14.81667 -14.81667,-14.81667 z m 8.46666,8.46667 h 2.11667 c 0,0 6.35,0 6.35,6.35 0,6.34999 -6.35,6.35 -6.35,6.35 H 114.3 Z" />
    <path
       id="path1462-9"
       style="fill:#000000;stroke-width:0.264583"
       d="m 105.83334,143.93333 v 29.63333 h 10.58333 c 0,0 14.81667,-1e-5 14.81667,-14.81666 0,-14.81666 -14.81667,-14.81667 -14.81667,-14.81667 z M 114.3,152.4 h 2.11667 c 0,0 6.35,0 6.35,6.35 0,6.34999 -6.35,6.35 -6.35,6.35 H 114.3 Z" />
    <path
       id="path8014"
       style="fill:#ffffff;stroke-width:0.264583"
       d="m 35.983334,209.55001 v 55.03333 h 12.7 v -21.16666 h 2.11667 c 0,0 14.81666,-4e-5 14.81666,-16.93334 0,-16.9333 -14.81666,-16.93333 -14.81666,-16.93333 z m 12.7,12.7 h 2.11667 c 0,0 2.11666,0 2.11666,4.23333 0,4.23333 -2.11666,4.23334 -2.11666,4.23334 h -2.11667 z" />
    <path
       style="fill:#ffffff;stroke-width:0.264583"
       d="m 50.800004,243.41668 c 0,0 2.11666,0 2.11666,2.11666 0,2.11667 0,19.05 0,19.05 h 12.7 v -19.05 c 0,0 0,-14.81666 -14.81666,-14.81666 -14.81667,0 -6.35,0 -6.35,0 v 12.7 z"
       id="path8012" />
    <path
       id="path8006"
       style="fill:#000000;stroke-width:0.264583"
       d="m 38.100004,211.66668 v 50.8 h 8.46666 v -21.16667 h 4.23334 c 0,0 4.23333,1e-5 4.23333,4.23333 v 16.93334 h 8.46667 v -16.93334 c 0,0 -10e-4,-5.03671 -3.17345,-8.76639 1.82123,-2.1943 3.17345,-5.45015 3.17345,-10.28361 0,-14.25725 -12.7,-14.81666 -12.7,-14.81666 z m 8.46666,8.46666 h 4.23334 c 0,0 4.23333,1e-5 4.23333,6.35 0,6.35 -4.23333,6.35 -4.23333,6.35 h -4.23334 z" />
    <path
       style="fill:#ffffff;stroke-width:0.264583"
       d="m 69.849999,277.28333 v 12.7 h 8.46667 v 42.33333 h 12.7 v -42.33333 h 8.46666 v -12.7 z"
       id="path1312-7-6" />
    <path
       style="fill:#000000;fill-opacity:1;stroke-width:0.264583"
       d="m 71.966669,279.4 v 8.46667 h 8.46666 V 330.2 h 8.46667 v -42.33333 h 8.46667 V 279.4 Z"
       id="path3962-5-7" />
    <path
       style="fill:#ffffff;stroke-width:0.264583"
       d="m 137.58334,277.28333 v 12.69999 H 146.05 v 29.63335 h -8.46666 v 12.7 h 29.63333 v -12.7 H 158.75 v -29.63335 h 8.46667 v -12.69999 z"
       id="path8879-8-2-7" />
    <path
       style="fill:#000000;stroke-width:0.264583"
       d="m 139.7,279.4 v 8.46667 h 8.46667 v 33.86667 H 139.7 V 330.2 h 25.4 v -8.46666 h -8.46666 V 287.86667 H 165.1 V 279.4 Z"
       id="path8877-5-9-1" />
    <path
       id="path8014-6"
       style="fill:#ffffff;stroke-width:0.264583"
       d="m 103.71667,277.28333 v 55.03333 h 12.7 V 311.15 h 2.11667 c 0,0 14.81666,-4e-5 14.81666,-16.93334 0,-16.9333 -14.81666,-16.93333 -14.81666,-16.93333 z m 12.7,12.7 h 2.11667 c 0,0 2.11666,0 2.11666,4.23333 0,4.23333 -2.11666,4.23334 -2.11666,4.23334 h -2.11667 z" />
    <path
       style="fill:#ffffff;stroke-width:0.264583"
       d="m 118.53334,311.15 c 0,0 2.11666,0 2.11666,2.11666 0,2.11667 0,19.05001 0,19.05001 h 12.7 v -19.05001 c 0,0 0,-14.81666 -14.81666,-14.81666 -14.81667,0 -6.35,0 -6.35,0 v 12.7 z"
       id="path8012-2" />
    <path
       id="path8006-8"
       style="fill:#000000;stroke-width:0.264583"
       d="M 105.83334,279.40001 V 330.2 H 114.3 v -21.16667 h 4.23334 c 0,0 4.23333,1e-5 4.23333,4.23333 V 330.2 h 8.46667 v -16.93334 c 0,0 -0.001,-5.0367 -3.17345,-8.76639 1.82123,-2.1943 3.17345,-5.45015 3.17345,-10.28361 0,-14.25725 -12.7,-14.81666 -12.7,-14.81666 z m 8.46666,8.46666 h 4.23334 c 0,0 4.23333,0 4.23333,6.34999 0,6.35 -4.23333,6.35 -4.23333,6.35 H 114.3 Z" />
    <path
       id="path1489-7-4"
       style="fill:#ffffff;stroke-width:0.264583"
       d="m 52.916665,345.01666 v 33.86667 h 12.7 c 0,0 16.93333,-2e-5 16.93333,-16.93333 0,-16.93333 -16.93333,-16.93334 -16.93333,-16.93334 z m 12.7,12.7 c 0,0 4.23333,0 4.23333,4.23334 0,4.23332 -4.23333,4.23333 -4.23333,4.23333 z" />
    <path
       id="path1489-79"
       style="fill:#ffffff;stroke-width:0.264583"
       d="m 52.916665,366.18332 v 33.86667 h 12.7 c 0,0 16.93333,-2e-5 16.93333,-16.93333 0,-16.93333 -16.93333,-16.93334 -16.93333,-16.93334 z m 12.7,12.7 c 0,0 4.23333,0 4.23333,4.23334 0,4.23332 -4.23333,4.23333 -4.23333,4.23333 z" />
    <path
       id="path1462-8"
       style="fill:#000000;stroke-width:0.264583"
       d="m 55.033335,368.29999 v 29.63333 h 10.58333 c 0,0 14.81667,-10e-6 14.81667,-14.81666 0,-14.81666 -14.81667,-14.81667 -14.81667,-14.81667 z m 8.46666,8.46667 h 2.11667 c 0,0 6.35,0 6.35,6.35 0,6.34999 -6.35,6.35 -6.35,6.35 h -2.11667 z" />
    <path
       id="path1462-9-9"
       style="fill:#000000;stroke-width:0.264583"
       d="m 55.033335,347.13333 v 29.63333 h 10.58333 c 0,0 14.81667,-10e-6 14.81667,-14.81666 0,-14.81666 -14.81667,-14.81667 -14.81667,-14.81667 z m 8.46666,8.46667 h 2.11667 c 0,0 6.35,0 6.35,6.35 0,6.34999 -6.35,6.35 -6.35,6.35 h -2.11667 z" />
    <path
       id="path1489-7-4-8"
       style="fill:#ffffff;stroke-width:0.264583"
       d="m 120.65,345.01666 v 33.86667 h 12.7 c 0,0 16.93333,-2e-5 16.93333,-16.93333 0,-16.93333 -16.93333,-16.93334 -16.93333,-16.93334 z m 12.7,12.7 c 0,0 4.23333,0 4.23333,4.23334 0,4.23332 -4.23333,4.23333 -4.23333,4.23333 z" />
    <path
       id="path1489-79-8"
       style="fill:#ffffff;stroke-width:0.264583"
       d="m 120.65,366.18332 v 33.86667 h 12.7 c 0,0 16.93333,-2e-5 16.93333,-16.93333 0,-16.93333 -16.93333,-16.93334 -16.93333,-16.93334 z m 12.7,12.7 c 0,0 4.23333,0 4.23333,4.23334 0,4.23332 -4.23333,4.23333 -4.23333,4.23333 z" />
    <path
       id="path1462-8-4"
       style="fill:#000000;stroke-width:0.264583"
       d="m 122.76667,368.29999 v 29.63333 H 133.35 c 0,0 14.81667,-10e-6 14.81667,-14.81666 0,-14.81666 -14.81667,-14.81667 -14.81667,-14.81667 z m 8.46666,8.46667 H 133.35 c 0,0 6.35,0 6.35,6.35 0,6.34999 -6.35,6.35 -6.35,6.35 h -2.11667 z" />
    <path
       id="path1462-9-9-1"
       style="fill:#000000;stroke-width:0.264583"
       d="m 122.76667,347.13333 v 29.63333 H 133.35 c 0,0 14.81667,-10e-6 14.81667,-14.81666 0,-14.81666 -14.81667,-14.81667 -14.81667,-14.81667 z M 131.23333,355.6 H 133.35 c 0,0 6.35,0 6.35,6.35 0,6.34999 -6.35,6.35 -6.35,6.35 h -2.11667 z" />
    <path
       style="fill:#ffffff;stroke-width:0.264583"
       d="m 88.899999,387.35 c 0,0 14.816671,-4.23333 14.816671,-19.05 0,-10.58333 -14.816671,-10.58333 -14.816671,-10.58333 h -2.116666 v -12.7 h 2.116666 c 0,0 27.516661,0 27.516661,23.28333 0,27.51667 -27.516661,31.75 -27.516661,31.75 h -2.116666 v -12.7 z"
       id="path473"
       sodipodi:nodetypes="csccccscccc" />
    <path
       style="fill:#ffffff;stroke-width:0.264583"
       d="m 86.783334,387.35 v 12.7 h 29.633336 v -12.7 z"
       id="path1084" />
    <path
       style="fill:#000000;stroke-width:0.264583"
       d="m 88.900001,389.46667 v 8.46667 H 114.3 v -8.46667 z"
       id="path467" />
    <path
       style="fill:#000000;stroke-width:0.264583"
       d="m 88.900001,389.46667 c 0,0 16.933329,-4.23334 16.933329,-21.16667 0,-12.7 -16.933329,-12.7 -16.933329,-12.7 v -8.46666 c 0,0 25.399999,0 25.399999,21.16666 0,25.4 -25.399999,29.63334 -25.399999,29.63334 z"
       id="path471"
       sodipodi:nodetypes="csccscc" />
    <path
       style="fill:#ffffff;stroke-width:0.264583"
       d="m 120.65001,412.75001 v 55.03332 h -12.7 v -14.81666 l -4.23333,14.81666 -4.233332,1e-5 v 0 0 V 438.15 l 8.466662,-25.39999 z"
       id="path1198-3-5-0"
       sodipodi:nodetypes="ccccccccccc" />
    <path
       style="fill:#ffffff;stroke-width:0.264583"
       d="m 82.550008,412.75001 v 55.03332 h 12.7 v -14.81666 l 4.23333,14.81666 4.233332,1e-5 v 0 0 V 438.15 l -8.466662,-25.39999 z"
       id="path1198-3-5-0-5"
       sodipodi:nodetypes="ccccccccccc" />
    <path
       style="fill:#000000;fill-opacity:1;stroke-width:0.264583"
       d="m 118.53334,414.86667 v 50.8 h -8.46667 v -25.4 l -8.46665,25.4 v -25.4 25.4 -25.4 0 l 8.46665,-25.4 z"
       id="path3907-0-9-5"
       sodipodi:nodetypes="ccccccccccc" />
    <path
       style="fill:#000000;fill-opacity:1;stroke-width:0.264583"
       d="m 84.666678,414.86667 v 50.8 h 8.46667 v -25.4 l 8.466652,25.4 v -25.4 25.4 -25.4 0 l -8.466652,-25.4 z"
       id="path3907-0-9-5-2"
       sodipodi:nodetypes="ccccccccccc" />
    <g
       id="g3258">
      <g
         id="g3245"
         transform="translate(14.816663)">
        <path
           style="fill:#ffffff;stroke-width:0.264583"
           d="m 59.266667,480.48334 v 12.7 h 8.46666 v 29.63333 h -8.46666 v 12.7 h 29.63333 v -12.7 h -8.46667 v -29.63333 h 8.46667 v -12.7 z"
           id="path8879-8-5" />
        <path
           style="fill:#000000;stroke-width:0.264583"
           d="m 61.383327,482.60001 v 8.46666 h 8.46667 v 33.86667 h -8.46667 V 533.4 h 25.4 v -8.46666 h -8.46666 v -33.86667 h 8.46666 v -8.46666 z"
           id="path8877-5-5" />
        <path
           style="fill:#ffffff;stroke-width:0.264583"
           d="m 127.00001,480.48334 v 12.69999 h 8.46666 v 29.63333 h -8.46666 v 12.7 h 29.63333 v -12.7 h -8.46667 v -29.63333 h 8.46667 v -12.7 z"
           id="path8879-8-5-8" />
        <path
           style="fill:#000000;stroke-width:0.264583"
           d="m 129.11667,482.6 v 8.46666 h 8.46667 v 33.86668 h -8.46667 v 8.46665 h 25.4 v -8.46666 h -8.46666 v -33.86667 h 8.46666 V 482.6 Z"
           id="path8877-5-5-7" />
        <path
           style="fill:#ffffff;stroke-width:0.264583"
           d="m 93.133331,480.48333 v 55.03333 H 105.83333 V 520.7 l 4.23334,14.81666 h 12.69999 v -55.03333 h -12.69999 l -1e-5,14.81667 -4.23333,-14.81667 z"
           id="path1198-3-7"
           sodipodi:nodetypes="ccccccccccc" />
        <path
           style="fill:#000000;fill-opacity:1;stroke-width:0.264583"
           d="m 95.250001,482.6 v 50.8 h 8.466669 V 508 l 8.46666,25.4 H 120.65 v -50.8 h -8.46667 V 508 l -8.46666,-25.4 z"
           id="path3907-0-3"
           sodipodi:nodetypes="ccccccccccc" />
        <path
           style="fill:#ffffff;stroke-width:0.264583"
           d="m 55.033328,480.48334 v 55.03332 h -12.7 V 520.7 l -4.23333,14.81666 -4.23333,10e-6 v 0 0 -29.63334 l 8.46666,-25.39999 z"
           id="path1198-3-5-0-0"
           sodipodi:nodetypes="ccccccccccc" />
        <path
           style="fill:#ffffff;stroke-width:0.264583"
           d="m 16.933331,480.48334 v 55.03332 H 29.633328 V 520.7 l 4.23333,14.81666 4.23334,10e-6 v 0 0 -29.63334 l -8.46667,-25.39999 z"
           id="path1198-3-5-0-5-5"
           sodipodi:nodetypes="ccccccccccc" />
        <path
           style="fill:#000000;fill-opacity:1;stroke-width:0.264583"
           d="m 52.916658,482.6 v 50.8 h -8.46667 V 508 l -8.46665,25.4 V 508 533.4 508 v 0 l 8.46665,-25.4 z"
           id="path3907-0-9-5-1"
           sodipodi:nodetypes="ccccccccccc" />
        <path
           style="fill:#000000;fill-opacity:1;stroke-width:0.264583"
           d="m 19.049998,482.6 v 50.8 h 8.46667 V 508 l 8.46666,25.4 V 508 533.4 508 v 0 l -8.46666,-25.4 z"
           id="path3907-0-9-5-2-8"
           sodipodi:nodetypes="ccccccccccc" />
      </g>
    </g>
    <path
       id="path973-4"
       style="fill:#ffffff;fill-opacity:1;stroke-width:0.264583"
       d="m 173.56666,412.75 c 0,0 -14.81666,2e-5 -14.81666,14.81667 v 25.4 c 0,0 2e-5,14.81667 14.81666,14.81667 14.81665,0 14.81667,-14.81667 14.81667,-14.81667 v -25.4 c 0,0 -2e-5,-14.81667 -14.81667,-14.81667 z m 0,12.7 c 2.11667,0 2.11667,2.11667 2.11667,2.11667 v 25.4 c 0,0 0,2.11666 -2.11667,2.11666 -2.11666,0 -2.11666,-2.11666 -2.11666,-2.11666 v -25.4 c 0,0 0,-2.11667 2.11666,-2.11667 z" />
    <path
       id="path1166-8"
       style="fill:#000000;fill-opacity:1;stroke-width:0.264583"
       d="m 173.56666,414.86667 c -12.69998,0 -12.7,12.7 -12.7,12.7 v 25.4 c 0,0 2e-5,12.7 12.7,12.7 12.69999,0 12.7,-12.7 12.7,-12.7 v -25.4 c 0,0 -1e-5,-12.7 -12.7,-12.7 z m 0,8.46666 c 0,0 4.23333,1e-5 4.23333,4.23334 v 25.4 c 0,0 0,4.23333 -4.23333,4.23333 -4.23333,0 -4.23333,-4.23333 -4.23333,-4.23333 v -25.4 c 0,0 0,-4.23334 4.23333,-4.23334 z" />
    <path
       id="path973-6"
       style="fill:#ffffff;fill-opacity:1;stroke-width:0.264583"
       d="m 63.500001,412.75 c 0,0 -14.816663,2e-5 -14.816663,14.81667 v 25.4 c 0,0 1.5e-5,14.81667 14.816663,14.81667 14.816649,0 14.816669,-14.81667 14.816669,-14.81667 v -25.4 c 0,0 -2e-5,-14.81667 -14.816669,-14.81667 z m 0,12.7 c 2.11667,0 2.11667,2.11667 2.11667,2.11667 v 25.4 c 0,0 0,2.11666 -2.11667,2.11666 -2.11666,0 -2.11666,-2.11666 -2.11666,-2.11666 v -25.4 c 0,0 0,-2.11667 2.11666,-2.11667 z" />
    <path
       id="path1166-6"
       style="fill:#000000;fill-opacity:1;stroke-width:0.264583"
       d="m 63.500001,414.86667 c -12.699987,0 -12.7,12.7 -12.7,12.7 v 25.4 c 0,0 1.3e-5,12.7 12.7,12.7 12.699989,0 12.699999,-12.7 12.699999,-12.7 v -25.4 c 0,0 -1e-5,-12.7 -12.699999,-12.7 z m 0,8.46666 c 0,0 4.23333,1e-5 4.23333,4.23334 v 25.4 c 0,0 0,4.23333 -4.23333,4.23333 -4.23333,0 -4.23333,-4.23333 -4.23333,-4.23333 v -25.4 c 0,0 0,-4.23334 4.23333,-4.23334 z" />
    <path
       id="path1489-7-4-4"
       style="fill:#ffffff;stroke-width:0.264583"
       d="m 124.88334,412.75 v 33.86667 h 12.7 c 0,0 16.93333,-2e-5 16.93333,-16.93333 0,-16.93333 -16.93333,-16.93334 -16.93333,-16.93334 z m 12.7,12.7 c 0,0 4.23333,0 4.23333,4.23334 0,4.23332 -4.23333,4.23333 -4.23333,4.23333 z" />
    <path
       id="path1489-79-9"
       style="fill:#ffffff;stroke-width:0.264583"
       d="m 124.88334,433.91666 v 33.86667 h 12.7 c 0,0 16.93333,-2e-5 16.93333,-16.93333 0,-16.93333 -16.93333,-16.93334 -16.93333,-16.93334 z m 12.7,12.7 c 0,0 4.23333,0 4.23333,4.23334 0,4.23332 -4.23333,4.23333 -4.23333,4.23333 z" />
    <path
       id="path1462-8-9"
       style="fill:#000000;stroke-width:0.264583"
       d="m 127.00001,436.03333 v 29.63333 h 10.58333 c 0,0 14.81667,-10e-6 14.81667,-14.81666 0,-14.81666 -14.81667,-14.81667 -14.81667,-14.81667 z m 8.46666,8.46667 h 2.11667 c 0,0 6.35,0 6.35,6.35 0,6.34999 -6.35,6.35 -6.35,6.35 h -2.11667 z" />
    <path
       id="path1462-9-9-9"
       style="fill:#000000;stroke-width:0.264583"
       d="M 127.00001,414.86667 V 444.5 h 10.58333 c 0,0 14.81667,-10e-6 14.81667,-14.81666 0,-14.81666 -14.81667,-14.81667 -14.81667,-14.81667 z m 8.46666,8.46667 h 2.11667 c 0,0 6.35,0 6.35,6.35 0,6.34999 -6.35,6.35 -6.35,6.35 h -2.11667 z" />
    <path
       style="fill:#ffffff;stroke-width:0.264583"
       d="m 33.866666,412.75 c 0,0 -19.049999,0 -19.049999,27.51667 0,27.51666 19.049999,27.51666 19.049999,27.51666 h 10.583336 v -12.7 H 33.866666 c 0,0 -6.349999,0 -6.349999,-14.81666 0,-14.81667 6.349999,-14.81667 6.349999,-14.81667 h 10.583336 v -12.7 z"
       id="path7975" />
    <path
       style="fill:#000000;stroke-width:0.264583"
       d="m 33.866669,465.66667 c 0,0 -16.933336,0 -16.933336,-25.4 0,-25.4 16.933336,-25.4 16.933336,-25.4 h 8.466666 v 8.46666 l -8.466667,1e-5 c 0,0 -8.466669,-1e-5 -8.466669,16.93333 0,16.93333 8.46667,16.93333 8.46667,16.93333 h 8.466666 v 8.46667 z"
       id="path7973"
       sodipodi:nodetypes="csccccscccc" />
  </g>
</svg>
