# Blender v3.2.1 OBJ File: 'pipeEdge.blend'
# www.blender.org
mtllib pipeEdge.mtl
o BezierCircle_Mesh
v -2.000000 -2.000000 0.000000
v -1.981736 -2.000000 -0.271321
v -1.928536 -2.000000 -0.531568
v -1.842785 -2.000000 -0.778356
v -1.726871 -2.000000 -1.009296
v -1.583178 -2.000000 -1.222005
v -1.414094 -2.000000 -1.414094
v -1.222005 -2.000000 -1.583178
v -1.009296 -2.000000 -1.726870
v -0.778356 -2.000000 -1.842785
v -0.531568 -2.000000 -1.928536
v -0.271321 -2.000000 -1.981736
v 0.000000 -2.000000 -2.000000
v 0.271321 -2.000000 -1.981736
v 0.531568 -2.000000 -1.928536
v 0.778356 -2.000000 -1.842785
v 1.009296 -2.000000 -1.726871
v 1.222005 -2.000000 -1.583178
v 1.414094 -2.000000 -1.414094
v 1.583178 -2.000000 -1.222005
v 1.726870 -2.000000 -1.009296
v 1.842785 -2.000000 -0.778356
v 1.928536 -2.000000 -0.531568
v 1.981736 -2.000000 -0.271321
v 2.000000 -2.000000 0.000000
v 1.981736 -2.000000 0.271321
v 1.928536 -2.000000 0.531568
v 1.842785 -2.000000 0.778356
v 1.726871 -2.000000 1.009296
v 1.583178 -2.000000 1.222005
v 1.414094 -2.000000 1.414094
v 1.222005 -2.000000 1.583178
v 1.009296 -2.000000 1.726870
v 0.778356 -2.000000 1.842785
v 0.531568 -2.000000 1.928536
v 0.271321 -2.000000 1.981736
v 0.000000 -2.000000 2.000000
v -0.271321 -2.000000 1.981736
v -0.531568 -2.000000 1.928536
v -0.778356 -2.000000 1.842785
v -1.009296 -2.000000 1.726871
v -1.222005 -2.000000 1.583178
v -1.414094 -2.000000 1.414094
v -1.583178 -2.000000 1.222005
v -1.726870 -2.000000 1.009296
v -1.842785 -2.000000 0.778356
v -1.928536 -2.000000 0.531568
v -1.981736 -2.000000 0.271321
v -2.000000 2.000000 0.000000
v -1.981736 2.000000 -0.271321
v -1.928536 2.000000 -0.531568
v -1.842785 2.000000 -0.778356
v -1.726871 2.000000 -1.009296
v -1.583178 2.000000 -1.222005
v -1.414094 2.000000 -1.414094
v -1.222005 2.000000 -1.583178
v -1.009296 2.000000 -1.726870
v -0.778356 2.000000 -1.842785
v -0.531568 2.000000 -1.928536
v -0.271321 2.000000 -1.981736
v 0.000000 2.000000 -2.000000
v 0.271321 2.000000 -1.981736
v 0.531568 2.000000 -1.928536
v 0.778356 2.000000 -1.842785
v 1.009296 2.000000 -1.726871
v 1.222005 2.000000 -1.583178
v 1.414094 2.000000 -1.414094
v 1.583178 2.000000 -1.222005
v 1.726870 2.000000 -1.009296
v 1.842785 2.000000 -0.778356
v 1.928536 2.000000 -0.531568
v 1.981736 2.000000 -0.271321
v 2.000000 2.000000 0.000000
v 1.981736 2.000000 0.271321
v 1.928536 2.000000 0.531568
v 1.842785 2.000000 0.778356
v 1.726871 2.000000 1.009296
v 1.583178 2.000000 1.222005
v 1.414094 2.000000 1.414094
v 1.222005 2.000000 1.583178
v 1.009296 2.000000 1.726870
v 0.778356 2.000000 1.842785
v 0.531568 2.000000 1.928536
v 0.271321 2.000000 1.981736
v 0.000000 2.000000 2.000000
v -0.271321 2.000000 1.981736
v -0.531568 2.000000 1.928536
v -0.778356 2.000000 1.842785
v -1.009296 2.000000 1.726871
v -1.222005 2.000000 1.583178
v -1.414094 2.000000 1.414094
v -1.583178 2.000000 1.222005
v -1.726870 2.000000 1.009296
v -1.842785 2.000000 0.778356
v -1.928536 2.000000 0.531568
v -1.981736 2.000000 0.271321
vn 0.9643 0.0000 -0.2648
vn 0.9211 0.0000 -0.3892
vn -0.3892 0.0000 -0.9211
vn -0.5052 0.0000 -0.8630
vn 0.0000 0.0000 1.0000
vn 0.1340 0.0000 0.9910
vn 0.9910 0.0000 -0.1340
vn -0.2648 0.0000 -0.9643
vn -0.1340 0.0000 0.9910
vn 1.0000 0.0000 -0.0000
vn -0.1340 0.0000 -0.9910
vn -0.2648 0.0000 0.9643
vn 0.9910 0.0000 0.1340
vn -0.0000 0.0000 -1.0000
vn -0.3892 0.0000 0.9211
vn 0.9643 0.0000 0.2648
vn 0.1340 0.0000 -0.9910
vn -0.5052 0.0000 0.8630
vn 0.9211 0.0000 0.3892
vn 0.2648 0.0000 -0.9643
vn -0.6115 0.0000 0.7912
vn -0.9910 0.0000 -0.1340
vn -1.0000 0.0000 0.0000
vn 0.8630 0.0000 0.5052
vn 0.3892 0.0000 -0.9211
vn -0.7071 0.0000 0.7071
vn -0.9643 0.0000 -0.2648
vn 0.7912 0.0000 0.6115
vn 0.5052 0.0000 -0.8630
vn -0.7912 0.0000 0.6115
vn -0.9211 0.0000 -0.3892
vn 0.7071 0.0000 0.7071
vn 0.6115 0.0000 -0.7912
vn -0.8630 0.0000 0.5052
vn -0.8630 0.0000 -0.5052
vn 0.6115 0.0000 0.7912
vn 0.7071 0.0000 -0.7071
vn -0.9211 0.0000 0.3892
vn -0.7912 0.0000 -0.6115
vn 0.5052 0.0000 0.8630
vn 0.7912 0.0000 -0.6115
vn -0.9643 0.0000 0.2648
vn -0.7071 0.0000 -0.7071
vn 0.3892 0.0000 0.9211
vn 0.8630 0.0000 -0.5052
vn -0.9910 0.0000 0.1340
vn -0.6115 0.0000 -0.7912
vn 0.2648 0.0000 0.9643
usemtl Material.001
s 1
f 23//1 22//2 70//2 71//1
f 10//3 9//4 57//4 58//3
f 37//5 36//6 84//6 85//5
f 24//7 23//1 71//1 72//7
f 11//8 10//3 58//3 59//8
f 38//9 37//5 85//5 86//9
f 25//10 24//7 72//7 73//10
f 12//11 11//8 59//8 60//11
f 39//12 38//9 86//9 87//12
f 26//13 25//10 73//10 74//13
f 13//14 12//11 60//11 61//14
f 40//15 39//12 87//12 88//15
f 27//16 26//13 74//13 75//16
f 14//17 13//14 61//14 62//17
f 41//18 40//15 88//15 89//18
f 28//19 27//16 75//16 76//19
f 15//20 14//17 62//17 63//20
f 42//21 41//18 89//18 90//21
f 2//22 1//23 49//23 50//22
f 29//24 28//19 76//19 77//24
f 16//25 15//20 63//20 64//25
f 43//26 42//21 90//21 91//26
f 3//27 2//22 50//22 51//27
f 30//28 29//24 77//24 78//28
f 17//29 16//25 64//25 65//29
f 44//30 43//26 91//26 92//30
f 4//31 3//27 51//27 52//31
f 31//32 30//28 78//28 79//32
f 18//33 17//29 65//29 66//33
f 45//34 44//30 92//30 93//34
f 5//35 4//31 52//31 53//35
f 32//36 31//32 79//32 80//36
f 19//37 18//33 66//33 67//37
f 46//38 45//34 93//34 94//38
f 6//39 5//35 53//35 54//39
f 33//40 32//36 80//36 81//40
f 20//41 19//37 67//37 68//41
f 47//42 46//38 94//38 95//42
f 7//43 6//39 54//39 55//43
f 34//44 33//40 81//40 82//44
f 21//45 20//41 68//41 69//45
f 48//46 47//42 95//42 96//46
f 8//47 7//43 55//43 56//47
f 35//48 34//44 82//44 83//48
f 22//2 21//45 69//45 70//2
f 1//23 48//46 96//46 49//23
f 9//4 8//47 56//47 57//4
f 36//6 35//48 83//48 84//6
